<svg width="24" height="24" viewBox="0 0 24 24" fill="none" xmlns="http://www.w3.org/2000/svg">
<path d="M18.3047 3.56366e-06C19.1451 3.43103e-06 19.8251 -0.00151997 20.3745 0.0585973C20.9334 0.119833 21.4306 0.249746 21.8906 0.563968C22.6175 1.06071 23.2091 1.85397 23.5796 2.82862C23.8139 3.44541 23.9104 4.11098 23.9561 4.86035C24.0009 5.59716 24 6.50892 24 7.63623V16.3638C24 17.4911 24.0009 18.4028 23.9561 19.1396C23.9104 19.889 23.8139 20.5546 23.5796 21.1714C23.2091 22.146 22.6175 22.9393 21.8906 23.436C21.4306 23.7503 20.9334 23.8802 20.3745 23.9414C19.8251 24.0015 19.1451 24 18.3047 24H5.69531C4.85489 24 4.17487 24.0015 3.62549 23.9414C3.06655 23.8802 2.56941 23.7503 2.10938 23.436C1.38253 22.9393 0.79086 22.146 0.420412 21.1714C0.186089 20.5546 0.0896264 19.889 0.0439468 19.1396C-0.000932182 18.4028 1.40148e-06 17.4911 1.5009e-06 16.3638V7.63623C1.40148e-06 6.50892 -0.000932163 5.59716 0.0439468 4.86035C0.0896264 4.11098 0.186089 3.44541 0.420412 2.82862C0.79086 1.85397 1.38253 1.06071 2.10938 0.563968C2.56941 0.249746 3.06655 0.119833 3.62549 0.0585973C4.17487 -0.00152008 4.85489 3.43039e-06 5.69531 3.56366e-06H18.3047Z" fill="#C0C0C0"/>
</svg>
