<svg width="24" height="24" viewBox="0 0 24 24" fill="none" xmlns="http://www.w3.org/2000/svg">
<path fill-rule="evenodd" clip-rule="evenodd" d="M24 16.364C24 17.4913 24.0012 18.4025 23.9563 19.1393C23.9106 19.8889 23.8134 20.5545 23.5789 21.1715C23.2085 22.1461 22.6174 22.9386 21.8906 23.4354C21.4305 23.7497 20.9341 23.8802 20.3751 23.9414C19.8256 24.0016 19.1461 24 18.3054 24H5.69461C4.85391 24 4.17441 24.0016 3.62493 23.9414C3.06587 23.8802 2.56953 23.7497 2.10941 23.4354C1.38256 22.9386 0.791539 22.1461 0.42109 21.1715C0.186649 20.5545 0.0893773 19.8889 0.0437007 19.1393C-0.00117828 18.4025 2.86822e-06 17.4913 2.96764e-06 16.364V7.636C2.86822e-06 6.50869 -0.00117826 5.59753 0.0437007 4.86073C0.0893773 4.11108 0.186649 3.44553 0.42109 2.82855C0.791539 1.8539 1.38256 1.06139 2.10941 0.564647C2.56953 0.25028 3.06587 0.119848 3.62493 0.058599C4.17441 -0.00157995 4.85391 3.84585e-06 5.69461 3.97917e-06H18.3054C19.1461 3.8465e-06 19.8256 -0.0015799 20.3751 0.058599C20.9341 0.119848 21.4305 0.25028 21.8906 0.564647C22.6174 1.06139 23.2085 1.8539 23.5789 2.82855C23.8134 3.44553 23.9106 4.11108 23.9563 4.86073C24.0012 5.59753 24 6.50869 24 7.636V16.364ZM22.3733 7.636C22.3733 6.47256 22.3727 5.66525 22.3345 5.03784C22.2971 4.42329 22.227 4.07743 22.1289 3.81933C21.9145 3.25516 21.5724 2.79651 21.1517 2.50894C20.9592 2.37743 20.7013 2.2835 20.243 2.23327C19.7751 2.18201 19.173 2.18134 18.3054 2.18134H5.69461C4.82696 2.18134 4.22491 2.18201 3.75702 2.23327C3.29871 2.2835 3.04078 2.37743 2.8483 2.50894C2.42756 2.79651 2.08552 3.25516 1.87106 3.81933C1.77299 4.07743 1.70294 4.42329 1.66548 5.03784C1.62725 5.66525 1.62675 6.47256 1.62675 7.636V16.364C1.62675 17.5274 1.62725 18.3347 1.66548 18.9622C1.70294 19.5767 1.77299 19.9226 1.87106 20.1807C2.08552 20.7448 2.42756 21.2035 2.8483 21.4911C3.04078 21.6226 3.29871 21.7165 3.75702 21.7667C4.22491 21.818 4.82696 21.8187 5.69461 21.8187H18.3054C19.173 21.8187 19.7751 21.818 20.243 21.7667C20.7013 21.7165 20.9592 21.6226 21.1517 21.4911C21.5724 21.2035 21.9145 20.7448 22.1289 20.1807C22.227 19.9226 22.2971 19.5767 22.3345 18.9622C22.3727 18.3347 22.3733 17.5274 22.3733 16.364V7.636Z" fill="#C0C0C0" fill-opacity="0.752941"/>
<path d="M16.2031 4C16.7634 4 17.2168 3.99899 17.583 4.03906C17.9556 4.07989 18.2871 4.1665 18.5938 4.37598C19.0783 4.70714 19.4728 5.23598 19.7197 5.88574C19.8759 6.29694 19.9403 6.74066 19.9707 7.24024C20.0006 7.73144 20 8.33928 20 9.09082V14.9092C20 15.6607 20.0006 16.2686 19.9707 16.7598C19.9403 17.2593 19.8759 17.7031 19.7197 18.1143C19.4728 18.764 19.0783 19.2929 18.5938 19.624C18.2871 19.8335 17.9556 19.9201 17.583 19.9609C17.2168 20.001 16.7634 20 16.2031 20H7.79688C7.2366 20 6.78325 20.001 6.41699 19.9609C6.04437 19.9201 5.71294 19.8335 5.40625 19.624C4.92168 19.2929 4.52724 18.764 4.28027 18.1143C4.12406 17.7031 4.05975 17.2593 4.0293 16.7598C3.99938 16.2686 4 15.6607 4 14.9092V9.09082C4 8.33928 3.99938 7.73144 4.0293 7.24024C4.05975 6.74066 4.12406 6.29694 4.28027 5.88574C4.52724 5.23598 4.92168 4.70714 5.40625 4.37598C5.71294 4.1665 6.04437 4.07989 6.41699 4.03906C6.78325 3.99899 7.2366 4 7.79688 4H16.2031Z" fill="#C0C0C0"/>
</svg>
