<svg width="28" height="28" viewBox="0 0 28 28" fill="none" xmlns="http://www.w3.org/2000/svg">
<rect width="28" height="28" transform="matrix(0 1 -1 0 28 0)" fill="white"/>
<path fill-rule="evenodd" clip-rule="evenodd" d="M3 14C3 20.0751 7.92487 25 14 25C20.0751 25 25 20.0751 25 14C25 7.92487 20.0751 3 14 3C7.92487 3 3 7.92487 3 14ZM13.5657 10.5657C13.8781 10.2533 13.8781 9.74673 13.5657 9.43431C13.2533 9.1219 12.7467 9.1219 12.4343 9.43431L8.43431 13.4343C8.12189 13.7467 8.12189 14.2533 8.43431 14.5657L12.4343 18.5657C12.7467 18.8781 13.2533 18.8781 13.5657 18.5657C13.8781 18.2533 13.8781 17.7467 13.5657 17.4343L10.9314 14.8H18.5C18.9418 14.8 19.3 14.4418 19.3 14C19.3 13.5582 18.9418 13.2 18.5 13.2H10.9314L13.5657 10.5657Z" fill="white"/>
</svg>
