<svg width="24" height="24" viewBox="0 0 24 24" fill="none" xmlns="http://www.w3.org/2000/svg">
<path fill-rule="evenodd" clip-rule="evenodd" d="M11.7998 0C18.3168 0 23.5996 5.28284 23.5996 11.7998C23.5996 18.3168 18.3168 23.5996 11.7998 23.5996C5.28284 23.5996 0 18.3168 0 11.7998C0 5.28284 5.28284 0 11.7998 0ZM11.7998 1.59961C6.1665 1.59961 1.59961 6.1665 1.59961 11.7998C1.59961 17.4331 6.1665 22 11.7998 22C17.4331 22 22 17.4331 22 11.7998C22 6.1665 17.4331 1.59961 11.7998 1.59961Z" fill="#C0C0C0"/>
<path d="M11.7998 3.7998C16.2182 3.7998 19.7998 7.38145 19.7998 11.7998C19.7998 16.2182 16.2182 19.7998 11.7998 19.7998C11.0176 19.7998 10.2624 19.6849 9.54785 19.4756C9.28795 19.4183 9.01433 19.3318 8.74707 19.1953C5.84345 17.9955 3.7998 15.1369 3.7998 11.7998C3.7998 7.38145 7.38145 3.7998 11.7998 3.7998Z" fill="#C0C0C0"/>
</svg>
