<svg width="28" height="28" viewBox="0 0 28 28" fill="none" xmlns="http://www.w3.org/2000/svg">
<path fill-rule="evenodd" clip-rule="evenodd" d="M25 14C25 7.92487 20.0751 3 14 3C7.92487 3 3 7.92487 3 14C3 20.0751 7.92487 25 14 25C20.0751 25 25 20.0751 25 14ZM14.4343 17.4343C14.1219 17.7467 14.1219 18.2533 14.4343 18.5657C14.7467 18.8781 15.2533 18.8781 15.5657 18.5657L19.5657 14.5657C19.8781 14.2533 19.8781 13.7467 19.5657 13.4343L15.5657 9.43431C15.2533 9.12189 14.7467 9.12189 14.4343 9.43431C14.1219 9.74673 14.1219 10.2533 14.4343 10.5657L17.0686 13.2H9.5C9.05817 13.2 8.7 13.5582 8.7 14C8.7 14.4418 9.05817 14.8 9.5 14.8H17.0686L14.4343 17.4343Z" fill="#C0C0C0"/>
</svg>
