<svg width="28" height="28" viewBox="0 0 28 28" fill="none" xmlns="http://www.w3.org/2000/svg">
<path fill-rule="evenodd" clip-rule="evenodd" d="M8.06496 4.78978L8.06496 4.78979L5.98715 7.27636L3.89917 9.75438C3.24066 10.5359 2.9114 10.9267 2.73095 11.3722C2.5713 11.7665 2.49662 12.19 2.51182 12.615C2.52899 13.0954 2.70474 13.5752 3.05624 14.5349L4.17077 17.5776L5.27281 20.6248C5.62037 21.5859 5.79415 22.0664 6.08981 22.4455C6.3514 22.7809 6.68081 23.0573 7.05652 23.2566C7.48116 23.482 7.98456 23.5697 8.99136 23.7451L12.1837 24.3012L15.3737 24.8705L15.3737 24.8705C16.3798 25.05 16.8828 25.1397 17.3589 25.0732C17.7802 25.0144 18.1843 24.8673 18.5448 24.6416C18.9523 24.3865 19.2799 23.9944 19.9352 23.2102L22.013 20.7236L24.101 18.2456C24.7595 17.4641 25.0888 17.0733 25.2692 16.6278C25.4289 16.2335 25.5035 15.81 25.4884 15.385C25.4712 14.9046 25.2954 14.4248 24.9439 13.4651L23.8294 10.4224L22.7274 7.37516L22.7274 7.37514C22.3798 6.41411 22.206 5.93359 21.9104 5.55453C21.6488 5.21914 21.3194 4.94273 20.9436 4.74336C20.519 4.51802 20.0156 4.43032 19.0088 4.25492L15.8165 3.69878L12.6264 3.12954C11.6204 2.95002 11.1173 2.86025 10.6412 2.92677C10.22 2.98562 9.8159 3.13269 9.45538 3.35838C9.04791 3.61346 8.72026 4.00557 8.06496 4.78978ZM14 18C16.2091 18 18 16.2092 18 14C18 11.7909 16.2091 10 14 10C11.7908 10 9.99997 11.7909 9.99997 14C9.99997 16.2092 11.7908 18 14 18Z" fill="white"/>
</svg>
