<svg width="28" height="28" viewBox="0 0 28 28" fill="none" xmlns="http://www.w3.org/2000/svg">
<rect width="28" height="28" transform="matrix(-1 0 0 -1 28 28)" fill="white"/>
<path fill-rule="evenodd" clip-rule="evenodd" d="M14 3C7.92487 3 3 7.92487 3 14C3 20.0751 7.92487 25 14 25C20.0751 25 25 20.0751 25 14C25 7.92487 20.0751 3 14 3ZM17.4343 13.5657C17.7467 13.8781 18.2533 13.8781 18.5657 13.5657C18.8781 13.2533 18.8781 12.7467 18.5657 12.4343L14.5657 8.43431C14.2533 8.12189 13.7467 8.12189 13.4343 8.43431L9.43431 12.4343C9.12189 12.7467 9.12189 13.2533 9.43431 13.5657C9.74673 13.8781 10.2533 13.8781 10.5657 13.5657L13.2 10.9314L13.2 18.5C13.2 18.9418 13.5582 19.3 14 19.3C14.4418 19.3 14.8 18.9418 14.8 18.5L14.8 10.9314L17.4343 13.5657Z" fill="white"/>
</svg>
