<svg width="28" height="28" viewBox="0 0 28 28" fill="none" xmlns="http://www.w3.org/2000/svg">
<path d="M14 1.2002C16.6509 1.2002 18.7997 3.34911 18.7998 6V11.0039C19.6888 11.0135 20.2132 11.0577 20.6348 11.2725C21.1051 11.5121 21.4879 11.8949 21.7275 12.3652C21.9999 12.9 22 13.6001 22 15V20C22 21.3997 21.9998 22.1001 21.7275 22.6348C21.4879 23.1051 21.1051 23.4879 20.6348 23.7275C20.1 23.9999 19.4 24 18 24H10C8.60002 24 7.89999 23.9999 7.36523 23.7275C6.89488 23.4879 6.51215 23.1051 6.27246 22.6348C6.00016 22.1001 6 21.3997 6 20V15C6 13.6001 6.00007 12.9 6.27246 12.3652C6.51213 11.8949 6.89486 11.5121 7.36523 11.2725C7.78681 11.0577 8.3112 11.0135 9.2002 11.0039V11H17.2002V6C17.2001 4.23277 15.7673 2.7998 14 2.7998C12.2327 2.7998 10.7999 4.23277 10.7998 6V8H9.2002V6C9.20029 3.34911 11.3491 1.2002 14 1.2002Z" fill="black"/>
</svg>
