<svg width="28" height="28" viewBox="0 0 28 28" fill="none" xmlns="http://www.w3.org/2000/svg">
<path fill-rule="evenodd" clip-rule="evenodd" d="M7.16709 3.175H7.20005H8.80005H8.83301H8.83303H8.83305C9.36501 3.17499 9.81351 3.17498 10.1808 3.20499C10.5654 3.23641 10.933 3.30478 11.2826 3.48291C11.8141 3.75375 12.2463 4.18592 12.5171 4.71748C12.6953 5.06708 12.7636 5.4347 12.7951 5.81923C12.8251 6.18656 12.8251 6.63506 12.8251 7.16704V7.20001V8.8V8.83297C12.8251 9.36495 12.8251 9.81345 12.7951 10.1808C12.7636 10.5653 12.6953 10.9329 12.5171 11.2825C12.2463 11.8141 11.8141 12.2463 11.2826 12.5171C10.933 12.6952 10.5654 12.7636 10.1808 12.795C9.8135 12.825 9.365 12.825 8.83302 12.825H8.80005H7.20005H7.16708C6.63511 12.825 6.1866 12.825 5.81927 12.795C5.43475 12.7636 5.06713 12.6952 4.71753 12.5171C4.18597 12.2463 3.7538 11.8141 3.48296 11.2825C3.30483 10.9329 3.23646 10.5653 3.20504 10.1808C3.17503 9.81346 3.17504 9.36497 3.17505 8.83301V8.83298V8.83296V8.8V7.2V7.16705V7.16703V7.167C3.17504 6.63504 3.17503 6.18655 3.20504 5.81923C3.23646 5.4347 3.30483 5.06708 3.48296 4.71748C3.7538 4.18592 4.18597 3.75375 4.71753 3.48291C5.06713 3.30478 5.43475 3.23641 5.81927 3.20499C6.18659 3.17498 6.63509 3.17499 7.16705 3.175H7.16707H7.16709ZM5.95364 4.84951C5.67115 4.87259 5.54484 4.91321 5.46661 4.95307C5.24552 5.06572 5.06577 5.24548 4.95312 5.46657C4.91326 5.54479 4.87264 5.6711 4.84956 5.95359C4.82569 6.24571 4.82505 6.62634 4.82505 7.2V8.8C4.82505 9.37367 4.82569 9.7543 4.84956 10.0464C4.87264 10.3289 4.91326 10.4552 4.95312 10.5334C5.06577 10.7545 5.24552 10.9343 5.46661 11.0469C5.54484 11.0868 5.67115 11.1274 5.95364 11.1505C6.24575 11.1744 6.62638 11.175 7.20005 11.175H8.80005C9.37372 11.175 9.75435 11.1744 10.0465 11.1505C10.329 11.1274 10.4553 11.0868 10.5335 11.0469C10.7546 10.9343 10.9343 10.7545 11.047 10.5334C11.0868 10.4552 11.1275 10.3289 11.1505 10.0464C11.1744 9.7543 11.1751 9.37367 11.1751 8.8V7.20001C11.1751 6.62634 11.1744 6.24571 11.1505 5.95359C11.1275 5.6711 11.0868 5.54479 11.047 5.46657C10.9343 5.24548 10.7546 5.06572 10.5335 4.95307C10.4553 4.91321 10.329 4.87259 10.0465 4.84951C9.75435 4.82565 9.37372 4.82501 8.80005 4.82501H7.20005C6.62638 4.82501 6.24575 4.82565 5.95364 4.84951ZM6.75005 7.55C6.75005 7.26998 6.75005 7.12997 6.80455 7.02301C6.85248 6.92893 6.92897 6.85244 7.02306 6.8045C7.13001 6.75001 7.27002 6.75001 7.55005 6.75001H8.45005C8.73008 6.75001 8.87009 6.75001 8.97705 6.8045C9.07113 6.85244 9.14762 6.92893 9.19555 7.02301C9.25005 7.12997 9.25005 7.26998 9.25005 7.55V8.45001C9.25005 8.73003 9.25005 8.87004 9.19555 8.977C9.14762 9.07108 9.07113 9.14757 8.97705 9.19551C8.87009 9.25 8.73008 9.25 8.45005 9.25H7.55005C7.27002 9.25 7.13001 9.25 7.02306 9.19551C6.92897 9.14757 6.85248 9.07108 6.80455 8.977C6.75005 8.87004 6.75005 8.73003 6.75005 8.45001V7.55ZM7.16709 15.175H7.20005H8.80005H8.83301H8.83303C9.365 15.175 9.8135 15.175 10.1808 15.205C10.5654 15.2364 10.933 15.3048 11.2826 15.4829C11.8141 15.7538 12.2463 16.1859 12.5171 16.7175C12.6953 17.0671 12.7636 17.4347 12.7951 17.8192C12.8251 18.1866 12.8251 18.6351 12.8251 19.167V19.2V20.8V20.833C12.8251 21.3649 12.8251 21.8135 12.7951 22.1808C12.7636 22.5653 12.6953 22.9329 12.5171 23.2825C12.2463 23.8141 11.8141 24.2463 11.2826 24.5171C10.933 24.6952 10.5654 24.7636 10.1808 24.795C9.8135 24.825 9.365 24.825 8.83302 24.825H8.80005H7.20005H7.16708C6.63511 24.825 6.1866 24.825 5.81927 24.795C5.43475 24.7636 5.06713 24.6952 4.71753 24.5171C4.18597 24.2463 3.7538 23.8141 3.48296 23.2825C3.30483 22.9329 3.23646 22.5653 3.20504 22.1808C3.17503 21.8135 3.17504 21.365 3.17505 20.833V20.833V20.833V20.8V19.2V19.167V19.167V19.167C3.17504 18.635 3.17503 18.1865 3.20504 17.8192C3.23646 17.4347 3.30483 17.0671 3.48296 16.7175C3.7538 16.1859 4.18597 15.7538 4.71753 15.4829C5.06713 15.3048 5.43475 15.2364 5.81927 15.205C6.1866 15.175 6.6351 15.175 7.16707 15.175H7.16709ZM5.95364 16.8495C5.67115 16.8726 5.54484 16.9132 5.46661 16.9531C5.24552 17.0657 5.06577 17.2455 4.95312 17.4666C4.91326 17.5448 4.87264 17.6711 4.84956 17.9536C4.82569 18.2457 4.82505 18.6263 4.82505 19.2V20.8C4.82505 21.3737 4.82569 21.7543 4.84956 22.0464C4.87264 22.3289 4.91326 22.4552 4.95312 22.5334C5.06577 22.7545 5.24552 22.9343 5.46661 23.0469C5.54484 23.0868 5.67115 23.1274 5.95364 23.1505C6.24575 23.1744 6.62638 23.175 7.20005 23.175H8.80005C9.37372 23.175 9.75435 23.1744 10.0465 23.1505C10.329 23.1274 10.4553 23.0868 10.5335 23.0469C10.7546 22.9343 10.9343 22.7545 11.047 22.5334C11.0868 22.4552 11.1275 22.3289 11.1505 22.0464C11.1744 21.7543 11.1751 21.3737 11.1751 20.8V19.2C11.1751 18.6263 11.1744 18.2457 11.1505 17.9536C11.1275 17.6711 11.0868 17.5448 11.047 17.4666C10.9343 17.2455 10.7546 17.0657 10.5335 16.9531C10.4553 16.9132 10.329 16.8726 10.0465 16.8495C9.75435 16.8256 9.37372 16.825 8.80005 16.825H7.20005C6.62638 16.825 6.24575 16.8256 5.95364 16.8495ZM6.75005 19.55C6.75005 19.27 6.75005 19.13 6.80455 19.023C6.85248 18.9289 6.92897 18.8524 7.02306 18.8045C7.13001 18.75 7.27002 18.75 7.55005 18.75H8.45005C8.73008 18.75 8.87009 18.75 8.97705 18.8045C9.07113 18.8524 9.14762 18.9289 9.19555 19.023C9.25005 19.13 9.25005 19.27 9.25005 19.55V20.45C9.25005 20.73 9.25005 20.87 9.19555 20.977C9.14762 21.0711 9.07113 21.1476 8.97705 21.1955C8.87009 21.25 8.73008 21.25 8.45005 21.25H7.55005C7.27002 21.25 7.13001 21.25 7.02306 21.1955C6.92897 21.1476 6.85248 21.0711 6.80455 20.977C6.75005 20.87 6.75005 20.73 6.75005 20.45V19.55ZM15.75 16.55C15.75 16.27 15.75 16.13 15.8045 16.023C15.8525 15.9289 15.929 15.8524 16.0231 15.8045C16.13 15.75 16.27 15.75 16.55 15.75H17.45C17.7301 15.75 17.8701 15.75 17.977 15.8045C18.0711 15.8524 18.1476 15.9289 18.1956 16.023C18.25 16.13 18.25 16.27 18.25 16.55V17.45C18.25 17.73 18.25 17.87 18.1956 17.977C18.1476 18.0711 18.0711 18.1476 17.977 18.1955C17.8701 18.25 17.7301 18.25 17.45 18.25H16.55C16.27 18.25 16.13 18.25 16.0231 18.1955C15.929 18.1476 15.8525 18.0711 15.8045 17.977C15.75 17.87 15.75 17.73 15.75 17.45V16.55ZM18.75 19.55C18.75 19.27 18.75 19.13 18.8045 19.023C18.8525 18.9289 18.929 18.8524 19.0231 18.8045C19.13 18.75 19.27 18.75 19.55 18.75H20.45C20.7301 18.75 20.8701 18.75 20.977 18.8045C21.0711 18.8524 21.1476 18.9289 21.1956 19.023C21.25 19.13 21.25 19.27 21.25 19.55V20.45C21.25 20.73 21.25 20.87 21.1956 20.977C21.1476 21.0711 21.0711 21.1476 20.977 21.1955C20.8701 21.25 20.7301 21.25 20.45 21.25H19.55C19.27 21.25 19.13 21.25 19.0231 21.1955C18.929 21.1476 18.8525 21.0711 18.8045 20.977C18.75 20.87 18.75 20.73 18.75 20.45V19.55ZM15.8045 22.023C15.75 22.13 15.75 22.27 15.75 22.55V23.45C15.75 23.73 15.75 23.87 15.8045 23.977C15.8525 24.0711 15.929 24.1476 16.0231 24.1955C16.13 24.25 16.27 24.25 16.55 24.25H17.45C17.7301 24.25 17.8701 24.25 17.977 24.1955C18.0711 24.1476 18.1476 24.0711 18.1956 23.977C18.25 23.87 18.25 23.73 18.25 23.45V22.55C18.25 22.27 18.25 22.13 18.1956 22.023C18.1476 21.9289 18.0711 21.8524 17.977 21.8045C17.8701 21.75 17.7301 21.75 17.45 21.75H16.55C16.27 21.75 16.13 21.75 16.0231 21.8045C15.929 21.8524 15.8525 21.9289 15.8045 22.023ZM21.75 16.55C21.75 16.27 21.75 16.13 21.8045 16.023C21.8525 15.9289 21.929 15.8524 22.0231 15.8045C22.13 15.75 22.27 15.75 22.55 15.75H23.45C23.7301 15.75 23.8701 15.75 23.977 15.8045C24.0711 15.8524 24.1476 15.9289 24.1956 16.023C24.25 16.13 24.25 16.27 24.25 16.55V17.45C24.25 17.73 24.25 17.87 24.1956 17.977C24.1476 18.0711 24.0711 18.1476 23.977 18.1955C23.8701 18.25 23.7301 18.25 23.45 18.25H22.55C22.27 18.25 22.13 18.25 22.0231 18.1955C21.929 18.1476 21.8525 18.0711 21.8045 17.977C21.75 17.87 21.75 17.73 21.75 17.45V16.55ZM21.8045 22.023C21.75 22.13 21.75 22.27 21.75 22.55V23.45C21.75 23.73 21.75 23.87 21.8045 23.977C21.8525 24.0711 21.929 24.1476 22.0231 24.1955C22.13 24.25 22.27 24.25 22.55 24.25H23.45C23.7301 24.25 23.8701 24.25 23.977 24.1955C24.0711 24.1476 24.1476 24.0711 24.1956 23.977C24.25 23.87 24.25 23.73 24.25 23.45V22.55C24.25 22.27 24.25 22.13 24.1956 22.023C24.1476 21.9289 24.0711 21.8524 23.977 21.8045C23.8701 21.75 23.7301 21.75 23.45 21.75H22.55C22.27 21.75 22.13 21.75 22.0231 21.8045C21.929 21.8524 21.8525 21.9289 21.8045 22.023ZM19.1671 3.175H19.2001H20.8H20.833H20.833H20.8331C21.365 3.17499 21.8135 3.17498 22.1808 3.20499C22.5653 3.23641 22.933 3.30478 23.2826 3.48291C23.8141 3.75375 24.2463 4.18592 24.5171 4.71748C24.6953 5.06708 24.7636 5.4347 24.7951 5.81923C24.8251 6.18656 24.8251 6.63506 24.825 7.16704V7.20001V8.8V8.83297C24.8251 9.36495 24.8251 9.81345 24.7951 10.1808C24.7636 10.5653 24.6953 10.9329 24.5171 11.2825C24.2463 11.8141 23.8141 12.2463 23.2826 12.5171C22.933 12.6952 22.5653 12.7636 22.1808 12.795C21.8135 12.825 21.365 12.825 20.833 12.825H20.8H19.2H19.1671C18.6351 12.825 18.1866 12.825 17.8193 12.795C17.4347 12.7636 17.0671 12.6952 16.7175 12.5171C16.186 12.2463 15.7538 11.8141 15.483 11.2825C15.3048 10.9329 15.2365 10.5653 15.205 10.1808C15.175 9.81346 15.175 9.36495 15.175 8.83298V8.83296V8.8V7.2V7.16705V7.16703C15.175 6.63505 15.175 6.18655 15.205 5.81923C15.2365 5.4347 15.3048 5.06708 15.483 4.71748C15.7538 4.18592 16.186 3.75375 16.7175 3.48291C17.0671 3.30478 17.4347 3.23641 17.8193 3.20499C18.1866 3.17498 18.6351 3.17499 19.167 3.175H19.1671H19.1671ZM17.9536 4.84951C17.6711 4.87259 17.5448 4.91321 17.4666 4.95307C17.2455 5.06572 17.0658 5.24548 16.9531 5.46657C16.9133 5.54479 16.8726 5.6711 16.8496 5.95359C16.8257 6.24571 16.825 6.62634 16.825 7.2V8.8C16.825 9.37367 16.8257 9.7543 16.8496 10.0464C16.8726 10.3289 16.9133 10.4552 16.9531 10.5334C17.0658 10.7545 17.2455 10.9343 17.4666 11.0469C17.5448 11.0868 17.6711 11.1274 17.9536 11.1505C18.2458 11.1744 18.6264 11.175 19.2 11.175H20.8C21.3737 11.175 21.7543 11.1744 22.0465 11.1505C22.3289 11.1274 22.4553 11.0868 22.5335 11.0469C22.7546 10.9343 22.9343 10.7545 23.047 10.5334C23.0868 10.4552 23.1275 10.3289 23.1505 10.0464C23.1744 9.7543 23.175 9.37367 23.175 8.8V7.20001C23.175 6.62634 23.1744 6.24571 23.1505 5.95359C23.1275 5.6711 23.0868 5.54479 23.047 5.46657C22.9343 5.24548 22.7546 5.06572 22.5335 4.95307C22.4553 4.91321 22.3289 4.87259 22.0465 4.84951C21.7543 4.82565 21.3737 4.82501 20.8 4.82501H19.2001C18.6264 4.82501 18.2458 4.82565 17.9536 4.84951ZM18.75 7.55C18.75 7.26998 18.75 7.12997 18.8045 7.02301C18.8525 6.92893 18.929 6.85244 19.0231 6.8045C19.13 6.75001 19.27 6.75001 19.55 6.75001H20.4501C20.7301 6.75001 20.8701 6.75001 20.977 6.8045C21.0711 6.85244 21.1476 6.92893 21.1956 7.02301C21.25 7.12997 21.25 7.26998 21.25 7.55V8.45001C21.25 8.73003 21.25 8.87004 21.1956 8.977C21.1476 9.07108 21.0711 9.14757 20.977 9.19551C20.8701 9.25 20.7301 9.25 20.4501 9.25H19.55C19.27 9.25 19.13 9.25 19.0231 9.19551C18.929 9.14757 18.8525 9.07108 18.8045 8.977C18.75 8.87004 18.75 8.73003 18.75 8.45001V7.55Z" fill="black"/>
</svg>
