<svg width="29" height="29" viewBox="0 0 29 29" fill="none" xmlns="http://www.w3.org/2000/svg">
<path fill-rule="evenodd" clip-rule="evenodd" d="M22.9775 11.6264C23.2891 11.9397 23.7956 11.941 24.1089 11.6294C24.4221 11.3178 24.4234 10.8113 24.1118 10.4981L19.6238 5.98619C19.3122 5.67294 18.8056 5.6716 18.4924 5.9832L13.9805 10.4713C13.6673 10.7829 13.6659 11.2894 13.9775 11.6027C14.2891 11.9159 14.7956 11.9172 15.1089 11.6056L18.2515 8.47963L18.2196 20.5482C18.2184 20.99 18.5756 21.3492 19.0175 21.3503C19.4593 21.3515 19.8184 20.9943 19.8196 20.5524L19.8515 8.48385L22.9775 11.6264ZM5.09606 16.4478C4.78447 16.1346 4.27794 16.1333 3.9647 16.4449C3.65145 16.7564 3.65011 17.263 3.96171 17.5762L8.4498 22.0881C8.7614 22.4013 9.26792 22.4027 9.58117 22.0911L14.093 17.603C14.4063 17.2914 14.4076 16.7849 14.096 16.4716C13.7844 16.1584 13.2779 16.157 12.9647 16.4686L9.82208 19.5947L9.85397 7.52606C9.85513 7.08424 9.49791 6.72512 9.05608 6.72395C8.61426 6.72279 8.25514 7.08001 8.25397 7.52184L8.22209 19.5904L5.09606 16.4478Z" fill="black"/>
</svg>
